<svg width="48" height="48" viewBox="0 0 48 48" fill="none" xmlns="http://www.w3.org/2000/svg">
<rect width="48" height="48" rx="4" fill="#2DAE89"/>
<path d="M16.4706 17.4118V15.5294C16.4706 13.5325 17.2639 11.6174 18.6759 10.2053C20.0879 8.79327 22.0031 8 24 8C25.9969 8 27.9121 8.79328 29.3241 10.2053C30.7361 11.6174 31.5294 13.5325 31.5294 15.5294V17.4118M16.4706 17.4118H14.2876C12.3296 17.4118 10.6985 18.9126 10.5359 20.8638L9.28096 35.9227C9.09805 38.1175 10.8302 40 13.0327 40H34.9673C37.1699 40 38.902 38.1175 38.719 35.9227L37.4641 20.8638C37.3015 18.9126 35.6704 17.4118 33.7124 17.4118H31.5294M16.4706 17.4118H31.5294M30.4667 23.5333L26.7334 27.2666L23 31L19.8001 27.8" stroke="#F1F1F1" stroke-width="1.5" stroke-linecap="round" stroke-linejoin="round"/>
</svg>
