<svg width="34" height="27" viewBox="0 0 34 27" fill="none" xmlns="http://www.w3.org/2000/svg">
<path d="M32.4287 22.0714V8.35714C32.4287 6.46359 30.8937 4.92857 29.0001 4.92857H24.7144C23.7676 4.92857 23.0001 4.16106 23.0001 3.21429C23.0001 2.26751 22.2326 1.5 21.2858 1.5H12.7144C11.7676 1.5 11.0001 2.26751 11.0001 3.21429C11.0001 4.16106 10.2326 4.92857 9.28582 4.92857H5.0001C3.10656 4.92857 1.57153 6.46359 1.57153 8.35714V22.0714C1.57153 23.965 3.10656 25.5 5.0001 25.5H29.0001C30.8937 25.5 32.4287 23.965 32.4287 22.0714Z" stroke="#2DAE89" stroke-width="1.5"/>
<path d="M17.0002 11.623V18.0516M13.7859 14.8373H20.2145" stroke="#2DAE89" stroke-width="1.5" stroke-linecap="round" stroke-linejoin="round"/>
</svg>
