<svg width="66" height="64" viewBox="0 0 66 64" fill="none" xmlns="http://www.w3.org/2000/svg">
<path d="M17.0691 63.1095C19.976 63.1095 22.3325 60.7518 22.3325 57.8434C22.3325 54.935 19.976 52.5773 17.0691 52.5773C14.1622 52.5773 11.8057 54.935 11.8057 57.8434C11.8057 60.7518 14.1622 63.1095 17.0691 63.1095Z" fill="#2DAE89"/>
<path d="M43.3865 63.1095C46.2934 63.1095 48.6499 60.7518 48.6499 57.8434C48.6499 54.935 46.2934 52.5773 43.3865 52.5773C40.4796 52.5773 38.123 54.935 38.123 57.8434C38.123 60.7518 40.4796 63.1095 43.3865 63.1095Z" fill="#2DAE89"/>
<path d="M48.8392 12.3822L49.3656 18.612C50.3919 29.8761 42.3336 40.1292 31.1068 41.3773C25.8225 41.96 20.5164 40.489 16.2855 37.2684C12.0546 34.0478 9.22225 29.3238 8.37406 24.0729C8.31545 23.6803 8.11124 23.3241 7.80207 23.0753C7.4929 22.8265 7.10143 22.7032 6.70556 22.7301L1.86321 23.1514C1.64586 23.1639 1.43345 23.2212 1.23932 23.3198C1.04518 23.4184 0.873528 23.5561 0.735128 23.7243C0.596728 23.8924 0.494577 24.0874 0.435089 24.2969C0.375602 24.5064 0.360064 24.726 0.389453 24.9418C1.33815 32.4504 5.21118 39.2806 11.1664 43.9474C17.1216 48.6141 24.6774 50.74 32.1909 49.8628C39.7044 48.9856 46.568 45.1763 51.2892 39.263C56.0104 33.3498 58.2075 25.8108 57.4028 18.2855L64.1821 17.6957C64.3888 17.6778 64.5899 17.6193 64.774 17.5236C64.9582 17.4279 65.1216 17.2968 65.255 17.1379C65.3885 16.9789 65.4893 16.7952 65.5518 16.5973C65.6142 16.3993 65.6371 16.191 65.619 15.9842L65.1769 10.9498C65.159 10.743 65.1005 10.5418 65.0049 10.3576C64.9092 10.1734 64.7782 10.0099 64.6193 9.87634C64.4605 9.74283 64.2769 9.64195 64.079 9.57946C63.8812 9.51698 63.673 9.49412 63.4663 9.51219L50.2761 10.6707C50.0694 10.6886 49.8683 10.7471 49.6842 10.8428C49.5001 10.9385 49.3366 11.0696 49.2032 11.2285C49.0697 11.3875 48.9689 11.5712 48.9065 11.7691C48.844 11.9671 48.8212 12.1754 48.8392 12.3822Z" fill="#2DAE89"/>
<path fill-rule="evenodd" clip-rule="evenodd" d="M18.9569 5.3729C18.4615 6.04103 18.5035 6.96521 19.0574 7.58569L20.1602 8.8211C20.7433 9.48518 21.6025 9.85896 22.5706 9.68825C23.3478 9.55122 23.8545 9.01692 24.0964 8.7302C24.2302 8.57991 24.4313 8.38122 24.7163 8.13105C24.9301 7.94336 25.233 7.72842 25.6477 7.49385C25.9395 7.33275 26.3669 7.17887 26.9744 7.07175C27.3548 7.00467 27.6904 7.00247 27.9909 7.04817L28.004 7.05012C28.3119 7.09456 28.5489 7.18366 28.7396 7.29876C28.7497 7.30485 28.7598 7.31084 28.7701 7.31673C28.9524 7.42181 29.1136 7.56478 29.2582 7.76666C29.374 7.92817 29.471 8.14196 29.5243 8.44436C29.6203 8.98841 29.5835 9.37946 29.4938 9.66388C29.3513 10.0916 29.1509 10.4858 28.8903 10.8518L28.8761 10.872C28.584 11.2948 28.2556 11.6934 27.8896 12.0682C27.4099 12.5431 26.9718 13.0299 26.5776 13.5293C26.1295 14.0811 25.7683 14.6795 25.5141 15.3253C25.1695 16.1798 25.1639 17.0701 25.3888 17.9191L26.1501 20.9536C26.374 21.8462 27.2497 22.414 28.156 22.2542L30.3958 21.8592C31.2727 21.7046 31.8946 20.9175 31.8423 20.0287L31.6716 17.1324L31.6715 17.1307L31.6713 17.1266C31.6705 17.1081 31.6725 17.0649 31.729 16.9729C31.9257 16.6789 32.1811 16.3568 32.5046 16.0073L33.7131 14.7017L33.7177 14.6967C34.2465 14.121 34.7053 13.4837 35.0953 12.7895C35.5267 12.0251 35.8286 11.1928 36.0112 10.3056C36.2305 9.30124 36.2102 8.23019 36.0157 7.12725C35.8137 5.98195 35.4097 4.9312 34.773 4.01332C34.1618 3.13218 33.3976 2.40876 32.4859 1.86199C31.582 1.31994 30.578 0.97412 29.498 0.804467C28.4147 0.630168 27.2989 0.65401 26.1621 0.854464C25.3159 1.00367 24.5165 1.2325 23.7719 1.54966C23.0701 1.83867 22.4121 2.18936 21.8022 2.60427L21.7899 2.61268C21.2152 3.01087 20.6843 3.44918 20.2 3.92856L20.1845 3.94413C19.7346 4.40082 19.3247 4.87689 18.9569 5.3729Z" fill="#2DAE89"/>
<path fill-rule="evenodd" clip-rule="evenodd" d="M26.1601 26.6581C26.1551 26.679 26.1506 26.7 26.1464 26.7212C26.0426 27.2492 26.0432 27.7809 26.1355 28.3043C26.2284 28.8316 26.4082 29.3394 26.6905 29.8069C26.7066 29.8335 26.7234 29.8597 26.7409 29.8854C27.0147 30.2887 27.3476 30.6439 27.7394 30.94C27.7535 30.9507 27.7678 30.9612 27.7822 30.9714C28.2213 31.2829 28.7098 31.4945 29.2316 31.6061C29.7692 31.733 30.3151 31.7443 30.8537 31.6493C31.3924 31.5543 31.9015 31.357 32.3633 31.0539C32.8154 30.7706 33.2021 30.4047 33.5082 29.9618C33.7993 29.5405 34.0085 29.0772 34.1337 28.5818C34.136 28.5726 34.1383 28.5633 34.1405 28.554C34.2713 27.998 34.2772 27.4362 34.1802 26.8858C34.0837 26.3385 33.8838 25.8207 33.5756 25.3505C33.2887 24.9127 32.929 24.532 32.4967 24.2253C32.0643 23.9184 31.5856 23.7045 31.0761 23.5797C30.5281 23.4455 29.9713 23.4319 29.4219 23.5288C28.8725 23.6256 28.3539 23.8289 27.8849 24.1424C27.4487 24.434 27.0721 24.7987 26.7707 25.2349C26.7606 25.2495 26.7508 25.2642 26.7412 25.2791C26.4649 25.706 26.2747 26.171 26.1601 26.6581Z" fill="#2DAE89"/>
</svg>
