<svg width="18" height="14" viewBox="0 0 18 14" fill="none" xmlns="http://www.w3.org/2000/svg">
<path fill-rule="evenodd" clip-rule="evenodd" d="M4.25 3C4.25 3.41421 4.58579 3.75 5 3.75C5.41421 3.75 5.75 3.41421 5.75 3V2C5.75 1.58579 5.41421 1.25 5 1.25C4.58579 1.25 4.25 1.58579 4.25 2V3ZM4.25 7.5C4.25 7.9142 4.58579 8.25 5 8.25C5.41421 8.25 5.75 7.9142 5.75 7.5V6.5C5.75 6.0858 5.41421 5.75 5 5.75C4.58579 5.75 4.25 6.0858 4.25 6.5V7.5ZM4.25 12C4.25 12.4142 4.58579 12.75 5 12.75C5.41421 12.75 5.75 12.4142 5.75 12V11C5.75 10.5858 5.41421 10.25 5 10.25C4.58579 10.25 4.25 10.5858 4.25 11V12ZM3.8 0.5H14.2C15.0648 0.5 15.6232 0.50117 16.0482 0.53589C16.4557 0.56918 16.6068 0.6257 16.681 0.66349C16.9632 0.8073 17.1927 1.03677 17.3365 1.31901C17.3743 1.39318 17.4308 1.54426 17.4641 1.95175C17.4988 2.37676 17.5 2.93517 17.5 3.8V10.2C17.5 11.0648 17.4988 11.6232 17.4641 12.0482C17.4308 12.4557 17.3743 12.6068 17.3365 12.681C17.1927 12.9632 16.9632 13.1927 16.681 13.3365C16.6068 13.3743 16.4557 13.4308 16.0482 13.4641C15.6232 13.4988 15.0648 13.5 14.2 13.5H3.8C2.93517 13.5 2.37676 13.4988 1.95175 13.4641C1.54426 13.4308 1.39318 13.3743 1.31901 13.3365C1.03677 13.1927 0.8073 12.9632 0.66349 12.681C0.6257 12.6068 0.56918 12.4557 0.53589 12.0482C0.50117 11.6232 0.5 11.0648 0.5 10.2V3.8C0.5 2.93517 0.50117 2.37676 0.53589 1.95175C0.56918 1.54426 0.6257 1.39318 0.66349 1.31901C0.8073 1.03677 1.03677 0.8073 1.31901 0.66349C1.39318 0.6257 1.54426 0.56918 1.95175 0.53589C2.37676 0.50117 2.93517 0.5 3.8 0.5Z" fill="#626262"/>
</svg>
