<svg width="66" height="54" viewBox="0 0 66 54" fill="none" xmlns="http://www.w3.org/2000/svg">
<path d="M17.0691 53.3174C19.976 53.3174 22.3325 50.9601 22.3325 48.0524C22.3325 45.1446 19.976 42.7874 17.0691 42.7874C14.1622 42.7874 11.8057 45.1446 11.8057 48.0524C11.8057 50.9601 14.1622 53.3174 17.0691 53.3174Z" fill="#C91432"/>
<path d="M43.3865 53.3174C46.2934 53.3174 48.6499 50.9601 48.6499 48.0524C48.6499 45.1446 46.2934 42.7874 43.3865 42.7874C40.4796 42.7874 38.123 45.1446 38.123 48.0524C38.123 50.9601 40.4796 53.3174 43.3865 53.3174Z" fill="#C91432"/>
<path d="M36.3578 23.1777C36.0752 23.2036 35.7904 23.1721 35.5199 23.0852C35.2494 22.9982 34.9985 22.8575 34.7817 22.6712L23.447 12.987C23.2183 12.8057 23.028 12.5792 22.8873 12.3213C22.7466 12.0634 22.6584 11.7792 22.6281 11.4858C22.5977 11.1925 22.6258 10.8959 22.7106 10.6138C22.7954 10.3317 22.9352 10.0699 23.1217 9.84399C23.3082 9.61812 23.5375 9.43283 23.7959 9.29919C24.0543 9.16554 24.3366 9.08628 24.6258 9.06615C24.915 9.04602 25.2052 9.08543 25.4791 9.18202C25.753 9.27861 26.005 9.4304 26.2199 9.62832L37.5547 19.3125C37.8829 19.5895 38.1227 19.9596 38.2438 20.3756C38.3649 20.7917 38.3617 21.235 38.2347 21.6492C38.1077 22.0634 37.8626 22.4299 37.5305 22.7021C37.1985 22.9742 36.7944 23.1398 36.3697 23.1777H36.3578Z" fill="#C91432"/>
<path d="M25.8052 23.919C25.3627 23.9626 24.9169 23.8759 24.5257 23.6702C24.1346 23.4645 23.8162 23.1492 23.6121 22.7654C23.4079 22.3816 23.3273 21.9471 23.3809 21.5182C23.4344 21.0894 23.6195 20.6861 23.9122 20.3608L33.7131 9.02803C34.0991 8.61365 34.6356 8.3608 35.2097 8.32266C35.7837 8.28453 36.3507 8.46408 36.7912 8.82356C37.2318 9.18304 37.5116 9.69443 37.5719 10.2502C37.6321 10.8059 37.4681 11.3627 37.1144 11.8034L27.344 23.154C27.1529 23.3746 26.9184 23.5559 26.6541 23.6873C26.3899 23.8186 26.1013 23.8974 25.8052 23.919Z" fill="#C91432"/>
<path d="M48.8392 2.87617L49.3656 9.10629C50.3919 20.3711 42.3336 30.6247 31.1068 31.8728C25.8225 32.4556 20.5164 30.9845 16.2855 27.7637C12.0546 24.5429 9.22225 19.8186 8.37406 14.5675C8.31545 14.1749 8.11124 13.8187 7.80207 13.5698C7.4929 13.321 7.10143 13.1977 6.70556 13.2246L1.86321 13.6459C1.64586 13.6584 1.43345 13.7158 1.23932 13.8144C1.04518 13.913 0.873528 14.0507 0.735128 14.2188C0.596728 14.387 0.494577 14.582 0.435089 14.7915C0.375602 15.001 0.360064 15.2206 0.389453 15.4365C1.33815 22.9454 5.21118 29.776 11.1664 34.4431C17.1216 39.1101 24.6774 41.2361 32.1909 40.3589C39.7044 39.4816 46.568 35.672 51.2892 29.7584C56.0104 23.8449 58.2075 16.3055 57.4028 8.77978L64.1821 8.18994C64.3888 8.17205 64.5899 8.11357 64.774 8.01785C64.9581 7.92213 65.1216 7.79105 65.255 7.6321C65.3885 7.47315 65.4893 7.28944 65.5518 7.09147C65.6142 6.89351 65.6371 6.68517 65.619 6.47837L65.1769 1.44372C65.159 1.2369 65.1005 1.03564 65.0049 0.85143C64.9092 0.667224 64.7782 0.503687 64.6193 0.370166C64.4605 0.236645 64.2769 0.135758 64.079 0.0732725C63.8812 0.0107865 63.673 -0.0120736 63.4663 0.00599836L50.2761 1.1646C50.0694 1.1825 49.8683 1.24097 49.6842 1.33669C49.5001 1.43241 49.3366 1.56349 49.2032 1.72244C49.0697 1.8814 48.9689 2.06511 48.9065 2.26307C48.844 2.46103 48.8212 2.66937 48.8392 2.87617Z" fill="#C91432"/>
</svg>
