<svg width="16" height="20" viewBox="0 0 16 20" fill="none" xmlns="http://www.w3.org/2000/svg">
<path d="M0.588135 8.41177L7.99991 1L15.4117 8.41177L15.4117 19H0.588139L0.588135 8.41177Z" fill="#F1F1F1"/>
<path d="M4.39115 12.7282L7.9999 16.4706L11.6087 12.7282C12.0098 12.3122 12.2352 11.7479 12.2352 11.1596C12.2352 9.93438 11.2775 8.94118 10.096 8.94118C9.52871 8.94118 8.98461 9.1749 8.58344 9.59092L7.9999 10.1961L7.41636 9.59092C7.01519 9.1749 6.47109 8.94118 5.90375 8.94118C4.72233 8.94118 3.76461 9.93438 3.76461 11.1596C3.76461 11.7479 3.98998 12.3122 4.39115 12.7282Z" fill="#F1F1F1"/>
<path d="M0.588135 8.41177L7.99991 1L15.4117 8.41177L15.4117 19H0.588139L0.588135 8.41177Z" stroke="#2DAE89" stroke-linecap="round" stroke-linejoin="round"/>
<path d="M4.39115 12.7282L7.9999 16.4706L11.6087 12.7282C12.0098 12.3122 12.2352 11.7479 12.2352 11.1596C12.2352 9.93438 11.2775 8.94118 10.096 8.94118C9.52871 8.94118 8.98461 9.1749 8.58344 9.59092L7.9999 10.1961L7.41636 9.59092C7.01519 9.1749 6.47109 8.94118 5.90375 8.94118C4.72233 8.94118 3.76461 9.93438 3.76461 11.1596C3.76461 11.7479 3.98998 12.3122 4.39115 12.7282Z" stroke="#2DAE89" stroke-linecap="round" stroke-linejoin="round"/>
</svg>
