<svg width="14" height="13" viewBox="0 0 14 13" fill="none" xmlns="http://www.w3.org/2000/svg">
<path d="M11.6667 1.16666V5.16666M11.6667 5.16666C10.9303 5.16666 10.3333 5.76361 10.3333 6.49999C10.3333 7.23637 10.9303 7.83332 11.6667 7.83332M11.6667 5.16666C12.403 5.16666 13 5.76361 13 6.49999C13 7.23637 12.403 7.83332 11.6667 7.83332M11.6667 7.83332V11.8333M7 1.16666V9.16666M7 9.16666C6.26362 9.16666 5.66667 9.76361 5.66667 10.5C5.66667 11.2364 6.26362 11.8333 7 11.8333C7.73638 11.8333 8.33333 11.2364 8.33333 10.5C8.33333 9.76361 7.73638 9.16666 7 9.16666ZM2.33333 3.83332V11.8333M2.33333 3.83332C3.06971 3.83332 3.66667 3.23637 3.66667 2.49999C3.66667 1.76361 3.06971 1.16666 2.33333 1.16666C1.59695 1.16666 1 1.76361 1 2.49999C1 3.23637 1.59695 3.83332 2.33333 3.83332Z" stroke="#1E1E1E" stroke-linecap="round"/>
</svg>
