<svg width="32" height="33" viewBox="0 0 32 33" fill="none" xmlns="http://www.w3.org/2000/svg">
<path d="M18.0393 11.6356C17.2761 12.1798 16.3421 12.4998 15.3333 12.4998C12.756 12.4998 10.6666 10.4105 10.6666 7.83317C10.6666 5.25584 12.756 3.1665 15.3333 3.1665C17.0039 3.1665 18.4696 4.04439 19.294 5.36403M7.99996 27.2827H11.4803C11.9341 27.2827 12.3851 27.3367 12.825 27.4447L16.5025 28.3383C17.3004 28.5327 18.1317 28.5516 18.9379 28.395L23.0039 27.604C24.078 27.3948 25.0661 26.8804 25.8404 26.1272L28.7171 23.3288C29.5387 22.531 29.5387 21.2364 28.7171 20.4373C27.9775 19.7178 26.8063 19.6368 25.9695 20.2469L22.6168 22.693C22.1366 23.044 21.5524 23.2329 20.9515 23.2329H17.714L19.7747 23.2329C20.9362 23.2329 21.8771 22.3176 21.8771 21.1877V20.7787C21.8771 19.8405 21.2207 19.0225 20.2854 18.7957L17.1048 18.0222C16.5871 17.8966 16.057 17.8332 15.5241 17.8332C14.2377 17.8332 11.9092 18.8983 11.9092 18.8983L7.99996 20.533M26.6666 9.1665C26.6666 11.7438 24.5773 13.8332 22 13.8332C19.4226 13.8332 17.3333 11.7438 17.3333 9.1665C17.3333 6.58918 19.4226 4.49984 22 4.49984C24.5773 4.49984 26.6666 6.58918 26.6666 9.1665ZM2.66663 19.9665L2.66663 27.6998C2.66663 28.4466 2.66663 28.8199 2.81195 29.1052C2.93978 29.356 3.14376 29.56 3.39464 29.6878C3.67985 29.8332 4.05322 29.8332 4.79996 29.8332H5.86663C6.61336 29.8332 6.98673 29.8332 7.27195 29.6878C7.52283 29.56 7.7268 29.356 7.85463 29.1052C7.99996 28.8199 7.99996 28.4466 7.99996 27.6998V19.9665C7.99996 19.2198 7.99996 18.8464 7.85463 18.5612C7.7268 18.3103 7.52283 18.1063 7.27195 17.9785C6.98673 17.8332 6.61336 17.8332 5.86663 17.8332L4.79996 17.8332C4.05322 17.8332 3.67985 17.8332 3.39464 17.9785C3.14376 18.1063 2.93978 18.3103 2.81195 18.5612C2.66663 18.8464 2.66663 19.2198 2.66663 19.9665Z" stroke="#2DAE89" stroke-width="1.5" stroke-linecap="round" stroke-linejoin="round"/>
</svg>
