<svg width="71" height="75" viewBox="0 0 71 75" fill="none" xmlns="http://www.w3.org/2000/svg">
<path d="M18.4704 74.2687C21.5778 74.2687 24.0968 71.7484 24.0968 68.6395C24.0968 65.5305 21.5778 63.0103 18.4704 63.0103C15.363 63.0103 12.844 65.5305 12.844 68.6395C12.844 71.7484 15.363 74.2687 18.4704 74.2687Z" fill="#353535"/>
<path d="M46.6027 74.2687C49.7101 74.2687 52.2291 71.7484 52.2291 68.6395C52.2291 65.5305 49.7101 63.0103 46.6027 63.0103C43.4953 63.0103 40.9763 65.5305 40.9763 68.6395C40.9763 71.7484 43.4953 74.2687 46.6027 74.2687Z" fill="#353535"/>
<path d="M52.4316 20.0431L52.9942 26.7025C54.0914 38.7434 45.4773 49.7035 33.4762 51.0377C27.8275 51.6606 22.1555 50.0882 17.6328 46.6454C13.1101 43.2027 10.0824 38.1529 9.17572 32.54C9.11307 32.1203 8.89478 31.7396 8.56429 31.4736C8.23379 31.2076 7.81532 31.0758 7.39215 31.1045L2.21585 31.5549C1.98351 31.5683 1.75645 31.6296 1.54892 31.735C1.3414 31.8404 1.15791 31.9876 1.00996 32.1673C0.86202 32.347 0.752823 32.5554 0.689233 32.7794C0.625643 33.0034 0.609034 33.2381 0.640449 33.4688C1.65457 41.4951 5.79471 48.7964 12.1606 53.785C18.5265 58.7736 26.6034 61.0461 34.6351 60.1084C42.6667 59.1707 50.0037 55.0986 55.0505 48.7776C60.0973 42.4566 62.446 34.3978 61.5858 26.3535L68.8326 25.723C69.0535 25.7039 69.2686 25.6414 69.4654 25.539C69.6622 25.4367 69.8369 25.2966 69.9795 25.1267C70.1222 24.9568 70.23 24.7604 70.2967 24.5488C70.3635 24.3372 70.3879 24.1145 70.3686 23.8935L69.896 18.5119C69.8768 18.2909 69.8144 18.0757 69.7121 17.8788C69.6099 17.6819 69.4698 17.5071 69.3 17.3644C69.1302 17.2217 68.9339 17.1139 68.7224 17.0471C68.5109 16.9803 68.2883 16.9558 68.0674 16.9752L53.9676 18.2136C53.7466 18.2327 53.5316 18.2952 53.3348 18.3975C53.138 18.4999 52.9633 18.64 52.8206 18.8099C52.678 18.9798 52.5702 19.1761 52.5035 19.3877C52.4367 19.5994 52.4123 19.822 52.4316 20.0431Z" fill="#353535"/>
<path d="M21.7005 6.32629C21.4345 5.97012 21.4552 5.47608 21.75 5.14341C22.1571 4.6842 22.6065 4.24588 23.0969 3.82805L23.1058 3.82042L23.1059 3.82048C23.6223 3.39159 24.1832 3.00511 24.7872 2.66039L24.7941 2.65645L24.7941 2.65648C25.4243 2.30391 26.0995 2.0162 26.8177 1.7918C27.566 1.54708 28.3694 1.38987 29.224 1.31511C30.3614 1.2156 31.4464 1.28966 32.472 1.54825C33.5026 1.80362 34.4273 2.2184 35.2321 2.80215C36.041 3.38878 36.6989 4.12898 37.2037 5.01241C37.7204 5.91658 38.0188 6.93902 38.117 8.06075C38.2137 9.16612 38.137 10.1829 37.8534 11.0895C37.6014 11.9346 37.2418 12.7051 36.7694 13.3938C36.3285 14.0396 35.8275 14.6204 35.266 15.1337L35.2633 15.1362L35.2633 15.1361L33.8547 16.4139C33.4432 16.7871 33.1027 17.1459 32.8282 17.4892C32.6395 17.7379 32.5633 17.9686 32.5558 18.1975C32.5558 18.198 32.5557 18.1984 32.5557 18.1989L32.4675 21.3022C32.454 21.7779 32.0862 22.168 31.6121 22.2095L29.1901 22.4214C28.7001 22.4643 28.2603 22.1212 28.1826 21.6355L27.6536 18.3268C27.5205 17.5653 27.5982 16.8249 27.9414 16.1523C28.2259 15.5802 28.6097 15.0516 29.0818 14.5648C29.5225 14.0965 30.0097 13.6416 30.5421 13.1998C31.0087 12.7993 31.4347 12.366 31.821 11.8998L31.8294 11.8897L31.8295 11.8897C32.2031 11.4516 32.5035 10.9689 32.7324 10.439C32.9256 9.97679 33.0116 9.40512 32.9495 8.69513C32.91 8.24354 32.7892 7.8688 32.6021 7.55276C32.4014 7.21387 32.1528 6.94589 31.8546 6.73744L31.8392 6.72645C31.5365 6.50558 31.175 6.33977 30.7408 6.23782L30.7339 6.23619L30.7339 6.23617C30.3103 6.13332 29.8498 6.09962 29.3463 6.14367C28.6139 6.20775 28.0363 6.35047 27.5913 6.54848C27.0837 6.77954 26.6805 7.01159 26.37 7.23949M21.7005 6.32629L26.37 7.23949M21.7005 6.32629L22.7623 7.74796C23.1477 8.27478 23.7238 8.57998 24.413 8.51968C24.9166 8.47562 25.3068 8.15131 25.5554 7.90305M21.7005 6.32629L25.5554 7.90305M26.37 7.23949C26.0184 7.49756 25.75 7.71844 25.5554 7.90305M26.37 7.23949L25.5554 7.90305M27.6265 28.1525C27.6229 28.1634 27.6195 28.1744 27.6163 28.1854C27.4903 28.621 27.4504 29.0709 27.4904 29.5282C27.5312 29.9941 27.6477 30.4377 27.8493 30.8487C27.8566 30.8636 27.8643 30.8784 27.8724 30.8929C28.0785 31.262 28.3367 31.5897 28.6473 31.8703C28.6543 31.8766 28.6615 31.8829 28.6687 31.889C29.0105 32.1794 29.4008 32.3904 29.8308 32.521C30.2692 32.6674 30.7244 32.7181 31.1876 32.6775C31.6508 32.637 32.0903 32.508 32.4967 32.2878C32.8975 32.0844 33.2452 31.8089 33.5314 31.4636C33.8086 31.1291 34.0195 30.7537 34.1624 30.3426L34.1674 30.328C34.3156 29.8782 34.3633 29.4089 34.3215 28.9305C34.2804 28.4604 34.1506 28.0141 33.9288 27.6011C33.7167 27.2063 33.4419 26.8606 33.1035 26.5731C32.7651 26.2856 32.38 26.0705 31.9564 25.9266C31.5128 25.776 31.0519 25.7235 30.5828 25.7645C30.1137 25.8055 29.6689 25.9373 29.2583 26.1627C28.8661 26.3779 28.5242 26.6566 28.2408 26.9986C28.2348 27.0059 28.2288 27.0132 28.223 27.0207C27.9601 27.3583 27.7629 27.7386 27.6265 28.1525Z" fill="#353535" stroke="#353535" stroke-width="1.875" stroke-linejoin="round"/>
</svg>
