<svg width="66" height="62" viewBox="0 0 66 62" fill="none" xmlns="http://www.w3.org/2000/svg">
<path d="M17.0691 61.1636C19.976 61.1636 22.3325 58.8059 22.3325 55.8976C22.3325 52.9892 19.976 50.6315 17.0691 50.6315C14.1622 50.6315 11.8057 52.9892 11.8057 55.8976C11.8057 58.8059 14.1622 61.1636 17.0691 61.1636Z" fill="#0078D7"/>
<path d="M43.3865 61.1636C46.2934 61.1636 48.6499 58.8059 48.6499 55.8976C48.6499 52.9892 46.2934 50.6315 43.3865 50.6315C40.4796 50.6315 38.123 52.9892 38.123 55.8976C38.123 58.8059 40.4796 61.1636 43.3865 61.1636Z" fill="#0078D7"/>
<path d="M48.8392 10.4364L49.3656 16.6662C50.3919 27.9303 42.3336 38.1834 31.1068 39.4315C25.8225 40.0142 20.5164 38.5432 16.2855 35.3226C12.0546 32.102 9.22225 27.378 8.37406 22.1271C8.31545 21.7345 8.11124 21.3783 7.80207 21.1295C7.4929 20.8807 7.10143 20.7574 6.70556 20.7843L1.86321 21.2056C1.64586 21.2181 1.43345 21.2754 1.23932 21.374C1.04518 21.4726 0.873528 21.6103 0.735128 21.7785C0.596728 21.9466 0.494577 22.1416 0.435089 22.3511C0.375602 22.5606 0.360064 22.7802 0.389453 22.996C1.33815 30.5046 5.21118 37.3348 11.1664 42.0016C17.1216 46.6683 24.6774 48.7942 32.1909 47.917C39.7044 47.0398 46.568 43.2305 51.2892 37.3172C56.0104 31.404 58.2075 23.865 57.4028 16.3397L64.1821 15.7499C64.3888 15.732 64.5899 15.6735 64.774 15.5778C64.9582 15.4821 65.1216 15.351 65.255 15.1921C65.3885 15.0331 65.4893 14.8494 65.5518 14.6515C65.6142 14.4535 65.6371 14.2452 65.619 14.0384L65.1769 9.00403C65.159 8.79723 65.1005 8.59597 65.0049 8.41178C64.9092 8.22758 64.7782 8.06405 64.6193 7.93054C64.4605 7.79703 64.2769 7.69615 64.079 7.63366C63.8812 7.57118 63.673 7.54832 63.4663 7.56639L50.2761 8.72493C50.0694 8.74283 49.8683 8.8013 49.6842 8.89701C49.5001 8.99273 49.3366 9.1238 49.2032 9.28274C49.0697 9.44169 48.9689 9.62539 48.9065 9.82334C48.844 10.0213 48.8212 10.2296 48.8392 10.4364Z" fill="#0078D7"/>
<path d="M31.2237 29.5V29.875H30.8487H26.2697H25.8947V29.5V18.3342C25.8947 17.1375 25.9546 15.9599 26.0744 14.8015L26.0744 14.8011C26.1934 13.6634 26.3453 12.4547 26.5302 11.1752L26.5766 10.8538H26.9013H30.2171H30.5418L30.5883 11.1752C30.7731 12.4547 30.925 13.6634 31.044 14.8011L31.0441 14.8015C31.1638 15.9599 31.2237 17.1375 31.2237 18.3342V29.5ZM25.373 5.22889L25.3729 5.22896L25.3686 5.21822C25.2058 4.8085 25.125 4.37751 25.125 3.92808C25.125 3.46722 25.2053 3.02954 25.3686 2.61841L25.3717 2.61071L25.3751 2.60314C25.5511 2.21137 25.7876 1.86684 26.085 1.57276L26.0849 1.57268L26.0916 1.56641C26.4031 1.27296 26.7653 1.04656 27.1746 0.886778C27.5903 0.711452 28.0333 0.625 28.5 0.625C28.9553 0.625 29.3915 0.712074 29.8056 0.886782C30.2149 1.04656 30.5722 1.27361 30.8723 1.56953C31.1834 1.86343 31.428 2.2089 31.6052 2.60314L31.6052 2.60313L31.6072 2.60775C31.7865 3.02147 31.875 3.46289 31.875 3.92808C31.875 4.38196 31.7859 4.81668 31.6072 5.22889C31.4307 5.6364 31.1858 5.99042 30.8723 6.28662C30.5734 6.58141 30.2179 6.81413 29.8108 6.9867L29.6645 6.64144L29.8108 6.9867C29.3952 7.16288 28.9572 7.25068 28.5 7.25068C28.0313 7.25068 27.5866 7.16351 27.1694 6.9867L27.3158 6.64144L27.1694 6.9867C26.7623 6.81414 26.402 6.58212 26.0916 6.28975L26.0915 6.28983L26.085 6.2834C25.7854 5.98705 25.5486 5.63399 25.373 5.22889Z" fill="#0078D7" stroke="#0078D7" stroke-width="0.75"/>
</svg>
