<svg width="32" height="33" viewBox="0 0 32 33" fill="none" xmlns="http://www.w3.org/2000/svg">
<path d="M16 21.8333H17.3333C18.2222 21.8333 20 21.3 20 19.1667C20 17.0333 18.2222 16.5 17.3333 16.5H14.6667C13.7778 16.5 12 15.9667 12 13.8333C12 11.7 13.7778 11.1667 14.6667 11.1667H16M16 21.8333H12M16 21.8333V24.5M20 11.1667H16M16 11.1667V8.5M28 16.5C28 23.1274 22.6274 28.5 16 28.5C9.37258 28.5 4 23.1274 4 16.5C4 9.87258 9.37258 4.5 16 4.5C22.6274 4.5 28 9.87258 28 16.5Z" stroke="#2DAE89" stroke-width="1.5" stroke-linecap="round" stroke-linejoin="round"/>
</svg>
