<svg width="32" height="33" viewBox="0 0 32 33" fill="none" xmlns="http://www.w3.org/2000/svg">
<path d="M25.3334 13.8335L6.6667 13.8335M25.3334 13.8335L27.8189 17.9761C28.376 18.9045 28.6545 19.3687 28.7991 19.8684C28.9273 20.3112 28.978 20.7728 28.9489 21.2328C28.9161 21.752 28.7449 22.2656 28.4025 23.2927L28.1254 24.124C27.6009 25.6977 27.3386 26.4845 26.8521 27.0662C26.4225 27.5799 25.8709 27.9775 25.2477 28.2226C24.542 28.5002 23.7126 28.5002 22.0538 28.5002L9.94623 28.5002C8.28747 28.5002 7.45808 28.5002 6.75238 28.2226C6.1292 27.9775 5.57753 27.5799 5.14795 27.0662C4.66148 26.4845 4.3992 25.6977 3.87466 24.124L3.59755 23.2927C3.25517 22.2655 3.08398 21.752 3.05117 21.2328C3.02211 20.7728 3.07278 20.3111 3.20095 19.8684C3.3456 19.3687 3.62412 18.9045 4.18116 17.9761L6.6667 13.8335M25.3334 13.8335L25.8897 11.8862C26.1535 10.9631 26.2854 10.5015 26.1818 10.1363C26.091 9.81636 25.884 9.54192 25.6013 9.36677C25.2787 9.16683 24.7986 9.16683 23.8385 9.16683L8.16159 9.16683C7.20147 9.16683 6.72141 9.16683 6.39873 9.36677C6.11606 9.54192 5.90905 9.81636 5.81829 10.1363C5.71469 10.5015 5.84658 10.9631 6.11034 11.8862L6.6667 13.8335M16 9.16683H11.2858C10.5911 9.16683 9.92497 8.88588 9.4338 8.38578C8.94264 7.88568 8.6667 7.20741 8.6667 6.50016C8.6667 5.79292 8.94264 5.11464 9.4338 4.61454C9.92497 4.11445 10.5911 3.8335 11.2858 3.8335C14.9524 3.8335 16 9.16683 16 9.16683ZM16 9.16683H20.7143C21.4089 9.16683 22.0751 8.88588 22.5663 8.38578C23.0574 7.88568 23.3334 7.20741 23.3334 6.50016C23.3334 5.79292 23.0574 5.11464 22.5663 4.61454C22.0751 4.11445 21.4089 3.8335 20.7143 3.8335C17.0477 3.8335 16 9.16683 16 9.16683Z" stroke="#2DAE89" stroke-width="1.5" stroke-linecap="round" stroke-linejoin="round"/>
</svg>
