<svg width="32" height="33" viewBox="0 0 32 33" fill="none" xmlns="http://www.w3.org/2000/svg">
<path d="M7.99996 8.49984L10.6666 5.83317M10.6666 5.83317L7.99996 3.1665M10.6666 5.83317H7.99996C5.05444 5.83317 2.66663 8.22098 2.66663 11.1665M24 24.4998L21.3333 27.1665M21.3333 27.1665L24 29.8332M21.3333 27.1665H24C26.9455 27.1665 29.3333 24.7787 29.3333 21.8332M17.8895 18.3894C18.9325 18.8876 20.1003 19.1665 21.3333 19.1665C25.7516 19.1665 29.3333 15.5848 29.3333 11.1665C29.3333 6.74823 25.7516 3.1665 21.3333 3.1665C16.915 3.1665 13.3333 6.74823 13.3333 11.1665C13.3333 12.3995 13.6122 13.5673 14.1104 14.6103M18.6666 21.8332C18.6666 26.2515 15.0849 29.8332 10.6666 29.8332C6.24835 29.8332 2.66663 26.2515 2.66663 21.8332C2.66663 17.4149 6.24835 13.8332 10.6666 13.8332C15.0849 13.8332 18.6666 17.4149 18.6666 21.8332Z" stroke="#2DAE89" stroke-width="1.5" stroke-linecap="round" stroke-linejoin="round"/>
</svg>
