<svg width="48" height="48" viewBox="0 0 48 48" fill="none" xmlns="http://www.w3.org/2000/svg">
<rect width="48" height="48" rx="4" fill="#2DAE89"/>
<path d="M19.3333 21.6667L22.4444 24.7778L29.4444 17.7778M36.4444 38V17.4667C36.4444 14.8531 36.4444 13.5463 35.9358 12.548C35.4884 11.67 34.7745 10.956 33.8964 10.5086C32.8981 10 31.5914 10 28.9778 10H19.0222C16.4086 10 15.1019 10 14.1036 10.5086C13.2255 10.956 12.5116 11.67 12.0642 12.548C11.5556 13.5463 11.5556 14.8531 11.5556 17.4667V38L15.8333 34.8889L19.7222 38L24 34.8889L28.2778 38L32.1667 34.8889L36.4444 38Z" stroke="#F1F1F1" stroke-width="1.5" stroke-linecap="round" stroke-linejoin="round"/>
</svg>
