<svg width="15" height="16" viewBox="0 0 15 16" fill="none" xmlns="http://www.w3.org/2000/svg">
<path d="M13.885 13.2162L13.3359 6.62793C13.2648 5.77427 12.5512 5.11765 11.6946 5.11765H10.7395H4.15127H3.19619C2.33958 5.11765 1.62596 5.77427 1.55482 6.62793L1.0058 13.2162C0.925781 14.1764 1.68358 15 2.64717 15H12.2436C13.2072 15 13.965 14.1764 13.885 13.2162Z" fill="#F1F1F1"/>
<path d="M4.15127 7.59647V7.58824M10.7395 7.59647V7.58824M4.15127 5.11765V4.29412C4.15127 3.42046 4.49832 2.58259 5.11609 1.96482C5.73386 1.34706 6.57173 1 7.44538 1C8.31904 1 9.15691 1.34706 9.77468 1.96482C10.3924 2.58259 10.7395 3.42046 10.7395 4.29412V5.11765M4.15127 5.11765H3.19619C2.33958 5.11765 1.62596 5.77427 1.55482 6.62793L1.0058 13.2162C0.925781 14.1764 1.68358 15 2.64717 15H12.2436C13.2072 15 13.965 14.1764 13.885 13.2162L13.3359 6.62793C13.2648 5.77427 12.5512 5.11765 11.6946 5.11765H10.7395M4.15127 5.11765H10.7395" stroke="#F1F1F1" stroke-width="1.5" stroke-linecap="round" stroke-linejoin="round"/>
</svg>
