<svg width="28" height="28" viewBox="0 0 28 28" fill="none" xmlns="http://www.w3.org/2000/svg">
<path d="M10.5001 19.8333V21C10.5001 21.4596 10.5906 21.9148 10.7665 22.3394C10.9424 22.764 11.2002 23.1499 11.5252 23.4749C11.8502 23.7999 12.2361 24.0577 12.6607 24.2336C13.0853 24.4095 13.5405 24.5 14.0001 24.5C14.4597 24.5 14.9148 24.4095 15.3395 24.2336C15.7641 24.0577 16.15 23.7999 16.475 23.4749C16.8 23.1499 17.0578 22.764 17.2337 22.3394C17.4096 21.9148 17.5001 21.4596 17.5001 21V19.8333M21.0001 10.5C21.0001 14 23.3334 19.8333 23.3334 19.8333H4.66675C4.66675 19.8333 7.00008 15.1667 7.00008 10.5C7.00008 6.68733 10.1874 3.5 14.0001 3.5C17.8127 3.5 21.0001 6.68733 21.0001 10.5Z" stroke="#F1F1F1" stroke-width="1.5" stroke-linecap="round" stroke-linejoin="round"/>
</svg>
