<svg width="27" height="28" viewBox="0 0 27 28" fill="none" xmlns="http://www.w3.org/2000/svg">
<path d="M2.25 3.875H5.0625L7.3125 19.625H19.125M19.125 19.625C17.8824 19.625 16.875 20.6324 16.875 21.875C16.875 23.1176 17.8824 24.125 19.125 24.125C20.3676 24.125 21.375 23.1176 21.375 21.875C21.375 20.6324 20.3676 19.625 19.125 19.625ZM6.83035 16.25H20.25L23.625 6.125H5.38392M12.375 21.875C12.375 23.1176 11.3676 24.125 10.125 24.125C8.88236 24.125 7.875 23.1176 7.875 21.875C7.875 20.6324 8.88236 19.625 10.125 19.625C11.3676 19.625 12.375 20.6324 12.375 21.875Z" stroke="white" stroke-width="1.5" stroke-linecap="round" stroke-linejoin="round"/>
</svg>
