<svg width="66" height="62" viewBox="0 0 66 62" fill="none" xmlns="http://www.w3.org/2000/svg">
<path d="M17.0691 61.3711C19.976 61.3711 22.3325 59.0134 22.3325 56.105C22.3325 53.1966 19.976 50.8389 17.0691 50.8389C14.1622 50.8389 11.8057 53.1966 11.8057 56.105C11.8057 59.0134 14.1622 61.3711 17.0691 61.3711Z" fill="#FFBC11"/>
<path d="M43.3865 61.3711C46.2934 61.3711 48.6499 59.0134 48.6499 56.105C48.6499 53.1966 46.2934 50.8389 43.3865 50.8389C40.4796 50.8389 38.123 53.1966 38.123 56.105C38.123 59.0134 40.4796 61.3711 43.3865 61.3711Z" fill="#FFBC11"/>
<path d="M48.8392 10.6438L49.3656 16.8736C50.3919 28.1377 42.3336 38.3908 31.1068 39.6388C25.8225 40.2216 20.5164 38.7506 16.2855 35.53C12.0546 32.3093 9.22225 27.5853 8.37406 22.3345C8.31545 21.9419 8.11124 21.5857 7.80207 21.3369C7.4929 21.088 7.10143 20.9648 6.70556 20.9916L1.86321 21.4129C1.64586 21.4254 1.43345 21.4828 1.23932 21.5814C1.04518 21.68 0.873528 21.8177 0.735128 21.9858C0.596728 22.154 0.494577 22.3489 0.435089 22.5585C0.375602 22.768 0.360064 22.9876 0.389453 23.2034C1.33815 30.7119 5.21118 37.5422 11.1664 42.2089C17.1216 46.8757 24.6774 49.0016 32.1909 48.1244C39.7044 47.2472 46.568 43.4378 51.2892 37.5246C56.0104 31.6113 58.2075 24.0724 57.4028 16.5471L64.1821 15.9573C64.3888 15.9394 64.5899 15.8809 64.774 15.7852C64.9582 15.6895 65.1216 15.5584 65.255 15.3994C65.3885 15.2405 65.4893 15.0568 65.5518 14.8588C65.6142 14.6609 65.6371 14.4526 65.619 14.2458L65.1769 9.2114C65.159 9.00459 65.1005 8.80334 65.0049 8.61914C64.9092 8.43495 64.7782 8.27142 64.6193 8.13791C64.4605 8.00439 64.2769 7.90351 64.079 7.84103C63.8812 7.77855 63.673 7.75569 63.4663 7.77376L50.2761 8.9323C50.0694 8.95019 49.8683 9.00867 49.6842 9.10438C49.5001 9.20009 49.3366 9.33117 49.2032 9.49011C49.0697 9.64906 48.9689 9.83275 48.9065 10.0307C48.844 10.2287 48.8212 10.437 48.8392 10.6438Z" fill="#FFBC11"/>
<path d="M29.9714 1.0241L29.9388 0.650524L29.5652 0.683208L25.0037 1.08229L24.6301 1.11497L24.6628 1.48855L25.6359 12.6118C25.7402 13.804 25.9025 14.9719 26.1228 16.1155L26.1228 16.1159C26.3405 17.2388 26.5973 18.4297 26.8929 19.6883L26.9672 20.0044L27.2906 19.9761L30.5938 19.6871L30.9173 19.6588L30.9355 19.3346C31.0081 18.0438 31.0542 16.8265 31.0736 15.6828L31.0736 15.6823C31.0919 14.5179 31.0489 13.3396 30.9446 12.1474L29.9714 1.0241ZM26.2584 25.7128L26.2582 25.7127L26.2549 25.7238C26.1285 26.1461 26.0855 26.5825 26.1247 27.0302C26.1649 27.4894 26.283 27.9184 26.4815 28.3137L26.4852 28.3211L26.4893 28.3283C26.6988 28.7033 26.9645 29.0259 27.2863 29.2929L27.2862 29.293L27.2934 29.2987C27.6293 29.5639 28.0099 29.7578 28.4316 29.8813C28.8609 30.0198 29.3098 30.0673 29.7747 30.0266C30.2283 29.9869 30.6553 29.8622 31.0526 29.652C31.4464 29.4572 31.7825 29.1999 32.0557 28.8789C32.34 28.559 32.5536 28.1935 32.6957 27.7854L32.6958 27.7854L32.6973 27.7806C32.8399 27.3528 32.8896 26.9054 32.849 26.4419C32.8095 25.9898 32.6828 25.5645 32.4689 25.1694C32.2575 24.7788 31.9827 24.4475 31.6445 24.1798C31.3211 23.9122 30.9467 23.7113 30.5261 23.5749L30.4104 23.9316L30.5261 23.5749C30.0967 23.4356 29.6527 23.3863 29.1973 23.4261C28.7304 23.467 28.2949 23.5926 27.8948 23.8051L28.0707 24.1363L27.8948 23.8051C27.5043 24.0125 27.1655 24.275 26.8817 24.5933L26.8817 24.5932L26.8757 24.6002C26.6031 24.9216 26.398 25.2939 26.2584 25.7128Z" fill="#FFBC11" stroke="#FFBC11" stroke-width="0.75"/>
</svg>
