<svg width="32" height="32" viewBox="0 0 32 32" fill="none" xmlns="http://www.w3.org/2000/svg">
<rect width="32" height="32" rx="16" fill="#2DAE89"/>
<path d="M23.3889 9H8.61111C7.44518 9 6.5 10.0447 6.5 11.3333V20.6667C6.5 21.9553 7.44518 23 8.61111 23H23.3889C24.5548 23 25.5 21.9553 25.5 20.6667V11.3333C25.5 10.0447 24.5548 9 23.3889 9Z" fill="#F1F1F1"/>
<path d="M25.5 13H18C16.3431 13 15 14.3431 15 16C15 17.6569 16.3431 19 18 19H25.5M18 16V16.01M8.61111 9H23.3889C24.5548 9 25.5 10.0447 25.5 11.3333V20.6667C25.5 21.9553 24.5548 23 23.3889 23H8.61111C7.44518 23 6.5 21.9553 6.5 20.6667V11.3333C6.5 10.0447 7.44518 9 8.61111 9Z" stroke="#2DAE89" stroke-width="1.5" stroke-linecap="round" stroke-linejoin="round"/>
</svg>
