<svg width="22" height="16" viewBox="0 0 22 16" fill="none" xmlns="http://www.w3.org/2000/svg">
<path d="M18.3889 1H3.61111C2.44518 1 1.5 2.04467 1.5 3.33333V12.6667C1.5 13.9553 2.44518 15 3.61111 15H18.3889C19.5548 15 20.5 13.9553 20.5 12.6667V3.33333C20.5 2.04467 19.5548 1 18.3889 1Z" fill="#2DAE89"/>
<path d="M20.5 5H13C11.3431 5 10 6.34315 10 8C10 9.65685 11.3431 11 13 11H20.5M13 8V8.00999M3.61111 1H18.3889C19.5548 1 20.5 2.04467 20.5 3.33333V12.6667C20.5 13.9553 19.5548 15 18.3889 15H3.61111C2.44518 15 1.5 13.9553 1.5 12.6667V3.33333C1.5 2.04467 2.44518 1 3.61111 1Z" stroke="#0F0F0F" stroke-width="1.5" stroke-linecap="round" stroke-linejoin="round"/>
</svg>
